<?xml version="1.0" encoding="UTF-8" standalone="no"?>
<svg
   xmlns:dc="http://purl.org/dc/elements/1.1/"
   xmlns:cc="http://creativecommons.org/ns#"
   xmlns:rdf="http://www.w3.org/1999/02/22-rdf-syntax-ns#"
   xmlns:svg="http://www.w3.org/2000/svg"
   xmlns="http://www.w3.org/2000/svg"
   xmlns:sodipodi="http://sodipodi.sourceforge.net/DTD/sodipodi-0.dtd"
   xmlns:inkscape="http://www.inkscape.org/namespaces/inkscape"
   sodipodi:docname="umh-dark.svg"
   inkscape:version="1.0 (4035a4fb49, 2020-05-01)"
   id="svg8"
   version="1.1"
   viewBox="0 0 132.29167 47.624999"
   height="180"
   width="500">
  <defs
     id="defs2" />
  <sodipodi:namedview
     inkscape:window-maximized="1"
     inkscape:window-y="-8"
     inkscape:window-x="-8"
     inkscape:window-height="1017"
     inkscape:window-width="1920"
     units="px"
     width="500mm"
     showgrid="false"
     inkscape:document-rotation="0"
     inkscape:current-layer="layer1"
     inkscape:document-units="px"
     inkscape:cy="187.56398"
     inkscape:cx="-86.79529"
     inkscape:zoom="0.98994949"
     inkscape:pageshadow="2"
     inkscape:pageopacity="0.0"
     borderopacity="1.0"
     bordercolor="#666666"
     pagecolor="#ffffff"
     id="base" />
  <metadata
     id="metadata5">
    <rdf:RDF>
      <cc:Work
         rdf:about="">
        <dc:format>image/svg+xml</dc:format>
        <dc:type
           rdf:resource="http://purl.org/dc/dcmitype/StillImage" />
        <dc:title></dc:title>
      </cc:Work>
    </rdf:RDF>
  </metadata>
  <g
     id="layer1"
     inkscape:groupmode="layer"
     inkscape:label="Capa 1">
    <path
       id="path847"
       d="m 22.685759,41.554896 c -0.342111,-0.09205 -0.698508,-0.39966 -0.831536,-0.717805 -0.163473,-0.390952 -0.004,-1.410889 0.413417,-2.64372 0.07224,-0.213346 0.131332,-0.39298 0.131332,-0.399181 0,-0.0064 -3.434473,-0.01124 -7.632161,-0.01124 H 7.1346483 l 0.025965,-5.328571 c 0.014281,-2.930723 0.015129,-5.328581 0.00184,-5.328581 -0.075959,0 -0.5216088,1.078868 -0.86298,2.089176 C 5.9967919,30.110772 5.7548621,30.921627 5.465892,32.008778 5.1927116,33.036537 4.2867535,35.770903 4.1036504,36.120301 4.0316814,36.257643 3.8976896,36.43923 3.805892,36.52385 3.656302,36.661735 3.6241761,36.675703 3.4961506,36.658538 3.1610955,36.613578 2.6327541,36.164408 2.5176658,35.826647 2.4420658,35.604768 2.4421398,35.252974 2.517815,34.995438 2.550414,34.884513 2.6827217,34.593235 2.8118225,34.348156 3.1899569,33.630333 4.0655701,31.333072 4.5739211,29.725108 5.381432,27.170872 6.2430823,24.674565 6.8045355,23.262736 L 7.1372982,22.425999 V 14.787138 7.148277 l 4.0567738,9e-6 c 2.231225,0 9.107317,0.01115 15.280203,0.02479 l 11.22343,0.02469 v 10.705977 10.705984 l 0.08355,0.01741 c 0.04595,0.0096 0.281498,0.0363 0.523434,0.05943 0.444285,0.04238 0.959656,0.170576 1.135477,0.282377 0.152769,0.09713 0.257279,0.241163 0.317806,0.43798 0.07143,0.232272 0.07119,0.403133 -8.92e-4,0.645909 -0.153518,0.516952 -0.57664,0.621382 -1.669459,0.412016 -0.204231,-0.03916 -0.375506,-0.07122 -0.380613,-0.07122 -0.0051,0 -0.0093,1.654162 -0.0093,3.676049 v 3.676159 h -6.531409 c -6.185903,0 -6.532779,0.0037 -6.55701,0.06496 -0.01407,0.03575 -0.126096,0.348606 -0.248942,0.695268 -0.715759,2.019776 -1.224938,3.110189 -1.447149,3.099068 -0.02755,-9.21e-4 -0.129903,-0.02396 -0.227459,-0.05022 z m 1.920976,-3.843575 c 0.01172,-0.01898 0.111139,-0.323913 0.220937,-0.677669 0.228997,-0.737808 0.29457,-1.027317 0.654529,-2.889758 0.288758,-1.494044 0.50043,-2.413724 0.642132,-2.789981 0.258617,-0.686689 0.711103,-1.121177 1.363794,-1.309545 0.276587,-0.07979 1.994324,-0.41138 2.541664,-0.490592 0.245077,-0.03547 0.679532,-0.06569 0.965456,-0.06726 0.434322,-0.0028 0.540031,0.0083 0.642451,0.06413 0.06743,0.03685 0.131711,0.09066 0.142855,0.119724 0.03392,0.08836 -0.48105,2.123175 -0.926207,3.659768 -0.488358,1.685729 -0.59298,2.580182 -0.362708,3.10093 0.157096,0.355258 0.368189,0.497806 0.737164,0.497806 0.319406,0 0.530696,-0.08578 0.726331,-0.294945 0.485424,-0.51896 0.779413,-1.634536 0.935093,-3.548308 0.08144,-1.00114 0.187291,-1.657322 0.408533,-2.532527 0.106051,-0.419525 0.179378,-0.578759 0.321645,-0.698474 0.128569,-0.10818 0.200001,-0.112013 0.734831,-0.03934 0.214744,0.02921 0.563181,0.07205 0.774307,0.09536 0.211131,0.02331 0.854459,0.124663 1.429618,0.225306 0.575163,0.100643 1.058281,0.183061 1.073599,0.183143 0.01531,0 0.02785,-0.384162 0.02785,-0.853893 0,-0.469731 -0.01166,-0.854059 -0.02591,-0.854059 -0.123727,0 -1.775111,-0.171083 -2.337738,-0.242186 -0.796631,-0.10068 -1.268787,-0.189243 -1.345073,-0.252312 -0.07666,-0.06339 -0.03555,-0.516501 0.120206,-1.325016 0.07279,-0.377823 0.233867,-1.388766 0.357962,-2.246539 0.124091,-0.857772 0.299269,-2.002399 0.389287,-2.543612 0.09002,-0.541212 0.224357,-1.368348 0.29853,-1.838079 0.07418,-0.469731 0.224896,-1.324767 0.334932,-1.900089 0.346536,-1.811793 0.425168,-2.531892 0.425053,-3.892648 0,-0.894711 -0.02884,-1.125499 -0.180789,-1.450195 -0.128625,-0.274868 -0.252449,-0.370757 -0.472435,-0.365846 -0.180511,0.0037 -0.46656,0.156111 -0.559014,0.297212 -0.195205,0.297911 -0.336603,1.311812 -0.421552,3.022713 -0.06573,1.323864 -0.155424,1.920581 -0.70603,4.697321 -0.202487,1.021152 -0.51157,2.633649 -0.686849,3.583321 -0.558639,3.02673 -0.662585,3.498231 -0.79831,3.621051 -0.07315,0.06616 -0.09008,0.06634 -0.510945,0.0037 -0.736765,-0.110336 -1.528499,-0.142815 -2.416556,-0.09914 -1.153746,0.05676 -1.634673,0.143985 -2.191542,0.397587 -0.150618,0.06855 -0.278925,0.124709 -0.285128,0.124709 -0.0062,0 -0.03754,-0.02626 -0.06963,-0.05832 -0.08559,-0.0856 -0.07271,-0.298777 0.05484,-0.907103 0.166812,-0.795653 0.175694,-0.865014 0.240095,-1.875221 0.05936,-0.931013 0.121191,-1.482582 0.220609,-1.967746 0.15589,-0.760751 0.343605,-2.726599 0.780615,-8.174987 0.0948,-1.18198 0.197198,-2.054485 0.376305,-3.206557 0.116226,-0.747593 0.144933,-1.694666 0.05874,-1.937876 -0.111369,-0.3142288 -0.354052,-0.4735458 -0.723458,-0.4749458 -0.384333,-0.0018 -0.703474,0.244628 -0.937984,0.7232788 -0.238282,0.486343 -0.225395,0.382494 -0.48156,3.880393 -0.450332,6.149194 -0.71172,8.731946 -1.191303,11.771133 -0.362294,2.295926 -0.652564,3.695288 -1.463469,7.055265 -0.224124,0.928655 -0.978411,4.180968 -1.056904,4.557132 l -0.02499,0.119744 0.606155,0.01124 c 0.333386,0.0065 0.81822,0.01493 1.077409,0.01953 0.259795,0.0046 0.480813,-0.0074 0.492557,-0.02617 z m -4.781443,-2.105806 c 0.353459,-0.166863 0.708214,-0.654488 0.822693,-1.130816 0.02254,-0.09377 0.06711,-0.461383 0.09905,-0.816927 0.07239,-0.805834 0.18082,-1.567304 0.296201,-2.080183 0.240601,-1.069516 0.39022,-2.926235 0.39026,-4.843001 2e-5,-0.897365 -0.0099,-1.064799 -0.09379,-1.578148 -0.266269,-1.629967 -0.705205,-2.454597 -1.51245,-2.841459 -1.176919,-0.564026 -2.266482,0.114888 -3.579184,2.230194 -0.485651,0.782596 -1.428173,2.408426 -1.855232,3.200236 -0.748908,1.388564 -1.119195,1.990588 -1.295341,2.106 -0.07548,0.04948 -0.09199,0.04975 -0.131235,0.0028 -0.06415,-0.0773 -0.02782,-0.358317 0.227893,-1.762673 0.601832,-3.305293 0.71399,-4.335337 0.717689,-6.59109 0.003,-1.859806 -0.108038,-2.958511 -0.42425,-4.196023 -0.327474,-1.281591 -0.744395,-2.02126 -1.407323,-2.496787 -0.754657,-0.541313 -1.445409,-0.43716 -2.062521,0.310995 -0.3194976,0.387341 -0.5065415,0.807373 -1.2296498,2.761354 -0.3816772,1.031361 -0.7651134,2.059433 -0.8520801,2.284592 -0.086969,0.225158 -0.2368171,0.681889 -0.3330005,1.01496 -0.096182,0.333081 -0.231954,0.74717 -0.3017139,0.920206 l -0.1268369,0.314625 0.00147,2.309442 0.00147,2.309442 0.4766757,-1.299651 c 0.2621708,-0.71481 0.5604627,-1.508528 0.66287,-1.763816 0.2245867,-0.55987 0.3597649,-0.989742 0.7473159,-2.376509 0.162665,-0.582057 0.3738804,-1.308938 0.4693672,-1.61528 0.095487,-0.306351 0.2541852,-0.833742 0.3526638,-1.171983 0.2826416,-0.970798 0.5694396,-1.564603 0.8591126,-1.77877 0.163091,-0.120582 0.450546,-0.147762 0.555816,-0.05252 0.267997,0.24237 0.481288,1.218089 0.607262,2.777984 0.08901,1.10229 0.130582,3.052705 0.09305,4.366194 -0.03663,1.281407 -0.07774,1.821127 -0.18383,2.413089 -0.07767,0.43341 -0.156005,1.101865 -0.243669,2.079445 -0.09018,1.005627 -0.195012,1.860986 -0.300369,2.450773 -0.115625,0.647273 -0.10569,0.947156 0.04133,1.247666 0.16247,0.332085 0.457943,0.518168 1.005534,0.633295 0.361285,0.07592 0.402852,0.06072 0.878052,-0.321701 0.430323,-0.346312 0.709986,-0.771024 1.307928,-1.986285 0.251218,-0.510576 0.633319,-1.287589 0.849113,-1.726684 0.803471,-1.634896 2.151352,-3.928131 2.625267,-4.466523 0.208367,-0.236723 0.500312,-0.375584 0.740996,-0.352458 0.455424,0.04377 0.698302,0.512972 0.870269,1.681251 0.113504,0.771107 0.15034,1.461925 0.150481,2.8221 1.48e-4,1.469453 -0.01931,1.709897 -0.225502,2.784969 -0.128786,0.671514 -0.457354,1.937847 -0.68515,2.640661 -0.239536,0.739024 -0.275786,1.088911 -0.139895,1.35028 0.183467,0.352881 0.671606,0.454999 1.133216,0.237082 z m 39.726627,1.321569 c -0.765098,-0.119724 -1.217697,-0.41009 -1.473156,-0.94511 -0.185562,-0.388631 -0.136208,-0.874099 0.128465,-1.263596 0.159062,-0.234087 0.426884,-0.490822 0.659251,-0.631978 0.228085,-0.138558 0.969956,-0.46236 1.059306,-0.46236 0.03888,0 0.02902,-0.03658 -0.03759,-0.139249 -0.122416,-0.188562 -0.185234,-0.420787 -0.155989,-0.576686 0.02132,-0.113662 0.07686,-0.16584 0.468237,-0.439887 0.244232,-0.171009 0.444375,-0.321075 0.44478,-0.333477 4.06e-4,-0.01244 -0.132946,-0.0317 -0.296308,-0.04294 -0.220911,-0.01511 -0.35653,-0.04828 -0.529149,-0.129344 -0.324111,-0.152185 -0.452282,-0.272923 -0.592958,-0.558589 -0.113726,-0.230936 -0.122734,-0.277355 -0.134658,-0.69395 -0.01514,-0.528829 0.0374,-0.776608 0.257495,-1.214339 0.268504,-0.534035 0.460274,-0.689814 1.301254,-1.057041 0.548832,-0.239652 0.584158,-0.249778 0.925761,-0.265165 0.327359,-0.01474 0.382559,-0.0065 0.705523,0.105581 l 0.350375,0.121586 0.734611,-9.21e-4 c 0.641072,-9.21e-4 0.738739,0.0065 0.766915,0.05897 0.01972,0.03685 0.0096,0.174648 -0.02598,0.353415 l -0.05832,0.293065 -0.462609,-0.0234 -0.462618,-0.02349 0.03252,0.15728 c 0.01788,0.08652 0.03252,0.357792 0.03252,0.602871 0,0.546547 -0.08993,0.862453 -0.360916,1.267595 -0.226163,0.338139 -0.387645,0.456215 -1.134566,0.829634 -0.62937,0.314634 -0.751057,0.41348 -0.751057,0.610021 0,0.172861 0.156119,0.337162 0.793607,0.835235 0.625676,0.488841 0.934386,0.797754 1.067507,1.068217 0.118914,0.241587 0.143976,0.770738 0.05022,1.059721 -0.216047,0.66571 -0.81561,1.149216 -1.698684,1.369888 -0.351121,0.08772 -1.239308,0.125879 -1.603661,0.06883 z m 1.359277,-0.479608 c 0.468294,-0.144731 0.760714,-0.414411 0.849167,-0.783131 0.06118,-0.254846 0.0199,-0.480143 -0.126783,-0.693029 -0.138465,-0.200926 -1.294121,-1.120275 -1.411524,-1.122901 -0.120785,-0.0028 -0.693457,0.341161 -0.896418,0.538255 -0.229044,0.222413 -0.327991,0.403336 -0.388333,0.710047 -0.124247,0.631517 0.255412,1.170002 0.965933,1.370007 0.263111,0.07408 0.735182,0.06505 1.007958,-0.01926 z m 0.276038,-4.808845 c 0.3461,-0.102781 0.616839,-0.483368 0.760133,-1.06854 0.09957,-0.40657 0.134744,-1.030937 0.0727,-1.28969 -0.164587,-0.686063 -1.028469,-0.774258 -1.457816,-0.14884 -0.320107,0.466304 -0.485293,1.631791 -0.292687,2.065183 0.10197,0.22947 0.244094,0.37316 0.437161,0.441988 0.185373,0.06606 0.257739,0.06606 0.480539,0 z m 3.550971,2.283219 c -0.126783,-0.05786 -0.175321,-0.10877 -0.2371,-0.248424 -0.110539,-0.249898 -0.07703,-0.633314 0.135895,-1.553271 0.457265,-1.975983 0.572714,-2.698607 0.447719,-2.802345 -0.08081,-0.06708 -0.267671,0.0074 -0.565334,0.223961 -0.13829,0.100818 -0.260724,0.183309 -0.272075,0.183309 -0.01133,0 -0.04828,-0.07454 -0.082,-0.165683 l -0.06136,-0.165684 0.542594,-0.409141 c 0.567767,-0.428112 1.170675,-0.76485 1.439526,-0.803991 0.292899,-0.04266 0.456915,0.223464 0.414098,0.671874 -0.0117,0.122535 -0.187741,0.941314 -0.391211,1.819514 -0.412725,1.781451 -0.441094,1.94028 -0.374994,2.099854 0.229249,0.553467 1.567045,-1.157001 2.034417,-2.601152 0.139295,-0.430425 0.246591,-0.899769 0.357691,-1.564696 0.02221,-0.133177 0.02562,-0.135434 0.235184,-0.160044 0.116933,-0.01373 0.36941,-0.06597 0.561049,-0.116003 0.386779,-0.101066 0.471003,-0.08311 0.439077,0.09338 -0.0094,0.05224 -0.145441,0.587889 -0.302214,1.190364 -0.365891,1.406144 -0.699193,3.01467 -0.650949,3.141563 0.07601,0.199904 0.232318,0.164947 0.612186,-0.136917 0.156175,-0.124111 0.289112,-0.220129 0.295414,-0.213375 0.0065,0.0065 0.03953,0.07915 0.0738,0.1608 l 0.06238,0.148537 -0.216276,0.197305 c -0.584168,0.532938 -1.395926,1.046647 -1.653905,1.046647 -0.07648,0 -0.149891,-0.03907 -0.237063,-0.126257 -0.112206,-0.112206 -0.12622,-0.148352 -0.126027,-0.324908 3.69e-4,-0.309512 0.09406,-0.85803 0.25808,-1.510399 0.08256,-0.328501 0.149854,-0.610555 0.149486,-0.62679 -3.69e-4,-0.01622 -0.04819,0.05676 -0.106328,0.162099 -0.547109,0.992193 -1.450407,1.964291 -2.129431,2.291622 -0.357617,0.172401 -0.457099,0.187382 -0.652248,0.09825 z M 48.41333,30.718388 c -0.405718,-1.781921 -0.748247,-3.260421 -0.761173,-3.285557 -0.03542,-0.06883 -1.191135,5.283304 -1.191084,5.515972 2.3e-5,0.108567 0.0164,0.22795 0.0364,0.265303 0.05084,0.095 0.232567,0.1499 0.498335,0.150564 0.306157,7.83e-4 0.333338,0.02285 0.302708,0.24553 l -0.02489,0.180933 h -1.169097 -1.169101 l 0.0109,-0.184526 0.0109,-0.184526 0.296948,-0.08228 c 0.343529,-0.09524 0.432031,-0.174925 0.520114,-0.468266 0.06825,-0.227297 1.233096,-5.051179 1.394104,-5.773296 0.125494,-0.562828 0.13079,-0.640741 0.0537,-0.789821 -0.0671,-0.129767 -0.289912,-0.206823 -0.707471,-0.244664 -0.270251,-0.02451 -0.276303,-0.02727 -0.276303,-0.126672 0,-0.05593 0.0096,-0.149679 0.02135,-0.20839 l 0.02135,-0.106761 h 1.185914 c 1.022567,0 1.188027,0.0074 1.201262,0.05574 0.0085,0.03059 0.05692,0.247862 0.107737,0.482732 0.25497,1.178516 1.23392,5.421051 1.25093,5.421216 0.01076,0 0.745667,-1.340771 1.633137,-2.979721 l 1.613578,-2.979924 h 1.21681 1.216804 l 1.2e-5,0.192762 c 8e-6,0.113616 -0.01904,0.204953 -0.0464,0.22246 -0.02553,0.01631 -0.183949,0.03916 -0.352047,0.05077 -0.383085,0.02635 -0.452075,0.08228 -0.561579,0.454998 -0.04319,0.147007 -0.261643,1.453687 -0.485454,2.903726 -0.583834,3.782579 -0.576177,3.707809 -0.391935,3.828529 0.04796,0.03142 0.250722,0.07482 0.451652,0.09659 l 0.364623,0.03953 -0.01218,0.189943 -0.01218,0.189935 h -1.630956 -1.630949 l -4e-6,-0.190146 v -0.190156 l 0.232081,-0.02497 c 0.127645,-0.01373 0.310654,-0.0504 0.406691,-0.08145 0.160775,-0.05206 0.180399,-0.07196 0.247695,-0.25187 0.06676,-0.178416 0.996095,-6.024668 0.962968,-6.057791 -0.0072,-0.0074 -0.864874,1.556136 -1.905985,3.474053 l -1.892929,3.487119 -0.149657,9.22e-4 -0.149661,9.21e-4 -0.737668,-3.239856 z m 7.669556,3.179294 c -0.286161,-0.200438 -0.257057,-0.734252 0.130314,-2.39022 0.459119,-1.962688 0.490423,-2.252813 0.234291,-2.17152 -0.04627,0.01465 -0.264978,0.149753 -0.486015,0.30016 l -0.401883,0.273467 -0.07731,-0.151549 c -0.04252,-0.08339 -0.07197,-0.155779 -0.06544,-0.160966 1.592643,-1.264398 1.875521,-1.444888 2.231924,-1.424129 0.17041,0.0099 0.200265,0.02478 0.27589,0.137313 0.14949,0.222423 0.105955,0.617789 -0.192594,1.749038 -0.158245,0.599628 -0.521057,2.273885 -0.555594,2.563909 -0.01349,0.113285 -0.01361,0.234428 -3.71e-4,0.269211 0.05189,0.135222 0.24996,0.0598 0.67426,-0.25668 0.147421,-0.109958 0.283644,-0.199931 0.302715,-0.199931 0.01906,0 0.0513,0.04598 0.07164,0.102117 0.02034,0.0562 0.04788,0.12892 0.06123,0.161685 0.01829,0.04487 -0.0928,0.146454 -0.45108,0.412356 -0.616298,0.457385 -0.897866,0.644647 -1.135956,0.755499 -0.226974,0.105674 -0.489998,0.118582 -0.616131,0.03022 z m 14.703648,-3.78e-4 c -0.552306,-0.193307 -0.820272,-0.661702 -0.820272,-1.433739 0,-0.669709 0.297543,-2.005772 0.572622,-2.571226 0.208058,-0.427698 0.541001,-0.784255 1.035517,-1.108997 0.715916,-0.470137 1.082111,-0.617844 1.531664,-0.617844 0.753241,0 1.131848,0.478706 1.020756,1.290658 -0.07629,0.557262 -0.401558,1.015402 -0.948565,1.335879 -0.31997,0.187464 -1.178479,0.510576 -1.603256,0.603396 -0.173534,0.03796 -0.325258,0.07869 -0.337172,0.09057 -0.01189,0.01189 -0.02303,0.268068 -0.0246,0.56925 -0.0028,0.496903 0.0046,0.561778 0.07896,0.700741 0.147459,0.27566 0.396159,0.421708 0.718984,0.422215 0.299091,4.79e-4 0.872524,-0.244775 1.392038,-0.595334 0.150167,-0.101343 0.28034,-0.184249 0.289259,-0.184249 0.04128,0 0.136568,0.311013 0.104955,0.342626 -0.01898,0.01898 -0.25796,0.192247 -0.531049,0.385028 -0.54651,0.385802 -1.11904,0.690043 -1.460496,0.776128 -0.285611,0.07196 -0.806535,0.06938 -1.019292,-0.0055 z m 0.92473,-2.91164 c 0.631249,-0.204612 0.98625,-0.49507 1.247831,-1.020978 0.279207,-0.561335 0.190423,-1.090164 -0.202788,-1.207981 -0.471675,-0.141313 -0.962054,0.402018 -1.209078,1.339656 -0.140511,0.533326 -0.239173,1.002587 -0.210794,1.002587 0.01391,0 0.1826,-0.05095 0.374829,-0.113284 z m 3.167905,2.916883 c -0.04367,-0.03059 -0.108189,-0.130911 -0.143322,-0.22292 -0.08716,-0.228227 -0.05593,-0.884806 0.07067,-1.485254 0.05169,-0.245079 0.138244,-0.704601 0.192412,-1.021162 0.05418,-0.31656 0.189087,-0.991198 0.299847,-1.499194 0.164292,-0.753601 0.511396,-2.624371 0.598117,-3.223723 0.04644,-0.320678 -0.04358,-0.390271 -0.551265,-0.426306 -0.267017,-0.01898 -0.328833,-0.03409 -0.312506,-0.07666 0.01115,-0.02921 0.02036,-0.107259 0.02036,-0.173515 v -0.120462 l 0.380605,-0.06652 c 0.535325,-0.0936 1.184837,-0.256403 1.539966,-0.386005 0.291148,-0.106254 0.304527,-0.10783 0.363412,-0.04275 0.05703,0.06302 0.04856,0.125216 -0.127399,0.934081 -0.317381,1.45869 -1.187352,5.904225 -1.229634,6.283374 -0.0457,0.409703 -0.0055,0.56855 0.140455,0.553034 0.08035,-0.0083 0.586941,-0.327469 0.742673,-0.467557 0.09602,-0.08633 0.08781,-0.09112 0.189105,0.109756 l 0.0774,0.15353 -0.379187,0.295958 c -0.416733,0.325258 -1.075109,0.762649 -1.307509,0.868626 -0.180878,0.08246 -0.456473,0.08919 -0.564201,0.01373 z m 14.154072,-0.0092 c -0.382707,-0.137001 -0.600179,-0.375658 -0.7291,-0.800122 -0.116545,-0.383692 -0.08366,-1.023363 0.09663,-1.881412 0.313251,-1.490579 0.63064,-1.948185 1.864291,-2.687928 0.417517,-0.250368 0.624911,-0.322199 1.005029,-0.348145 0.426859,-0.02912 0.610564,0.02847 0.848024,0.26593 0.240702,0.240702 0.293147,0.41466 0.268279,0.889928 -0.0152,0.290246 -0.03787,0.389958 -0.136392,0.600596 -0.06496,0.138908 -0.177072,0.324419 -0.249032,0.412246 -0.140557,0.171516 -0.489523,0.434433 -0.752901,0.567232 -0.31128,0.156949 -1.2162,0.477056 -1.420913,0.502634 -0.113386,0.01419 -0.227545,0.03897 -0.253694,0.0551 -0.06164,0.03805 -0.122802,0.65844 -0.09159,0.928949 0.04331,0.375105 0.174851,0.585697 0.443352,0.709614 0.374672,0.172925 0.925909,0.0083 1.71971,-0.514244 0.169765,-0.111708 0.313261,-0.197194 0.318882,-0.189952 0.0055,0.0074 0.03704,0.08219 0.06984,0.166485 l 0.05961,0.153327 -0.498451,0.347961 c -0.609689,0.425634 -1.030117,0.671211 -1.330571,0.777225 -0.323637,0.114197 -0.97102,0.137627 -1.231035,0.0445 z m 0.941121,-2.890265 c 0.425606,-0.142805 0.692577,-0.300399 0.913866,-0.539415 0.475969,-0.514096 0.634963,-1.212902 0.349859,-1.537625 -0.136282,-0.155217 -0.302887,-0.194007 -0.543728,-0.126571 -0.341447,0.09559 -0.657822,0.53807 -0.860214,1.203089 -0.06358,0.208924 -0.261701,1.028468 -0.261701,1.082599 0,0.03437 0.140088,0.0055 0.401918,-0.0821 z m 3.258891,2.884165 c -0.06192,-0.06846 -0.06247,-0.08532 -0.0083,-0.251952 0.168491,-0.519772 0.343619,-1.342652 0.599036,-2.814656 0.20944,-1.207106 0.213853,-1.467158 0.02488,-1.467158 -0.08044,0 -0.372405,0.181679 -0.607614,0.378044 l -0.174611,0.145782 -0.08025,-0.157234 c -0.07122,-0.139572 -0.0738,-0.161934 -0.02303,-0.19902 0.03142,-0.02294 0.22292,-0.188598 0.425539,-0.368037 0.42053,-0.372415 0.944171,-0.758632 1.213243,-0.894822 0.329054,-0.166549 0.503481,-0.104641 0.577791,0.205091 0.02746,0.114316 0.03511,0.270768 0.01963,0.399762 -0.02737,0.228337 -0.282405,1.456469 -0.371337,1.788361 -0.07178,0.267967 -0.041,0.285399 0.06256,0.03538 0.17991,-0.43424 0.731441,-1.557537 0.859357,-1.750263 0.311871,-0.469851 0.797708,-0.798362 1.125988,-0.761359 0.09168,0.01032 0.184397,0.03658 0.206114,0.05823 0.02792,0.02792 0.01557,0.15962 -0.04202,0.448521 -0.04478,0.224974 -0.101094,0.593445 -0.12505,0.818834 -0.05003,0.470432 -0.08237,0.508089 -0.306001,0.356309 -0.720541,-0.488979 -1.455567,0.452105 -1.889898,2.419722 -0.07113,0.322144 -0.158414,0.77788 -0.194007,1.012741 -0.03557,0.23487 -0.06901,0.432949 -0.07417,0.440173 -0.0055,0.0074 -0.148361,0.02847 -0.318126,0.04718 -0.280341,0.03087 -0.625694,0.102633 -0.77518,0.160993 -0.03372,0.01318 -0.08587,-0.0083 -0.124412,-0.05068 z m 7.154397,0.03446 c -0.0458,-0.01953 -0.11678,-0.09039 -0.15768,-0.157437 -0.15528,-0.254689 -0.0952,-0.672344 0.36994,-2.572746 0.16496,-0.673956 0.31019,-1.32086 0.32272,-1.437554 0.0582,-0.542004 -0.31789,-0.526553 -0.84192,0.03455 -0.314657,0.336932 -0.724304,0.938984 -0.924005,1.357983 -0.291766,0.612168 -0.630762,1.721239 -0.696272,2.277977 l -0.02239,0.19068 -0.227472,0.02515 c -0.125105,0.01382 -0.377076,0.05749 -0.559925,0.0971 -0.409869,0.08873 -0.385213,0.08956 -0.432646,-0.01456 -0.0316,-0.06947 -0.01262,-0.173847 0.09611,-0.529142 0.268575,-0.877195 0.314994,-1.044316 0.427182,-1.538068 0.116057,-0.510723 0.271688,-1.477588 0.314339,-1.952838 0.01917,-0.213319 0.01262,-0.27238 -0.03418,-0.311235 -0.08532,-0.07085 -0.325304,0.03216 -0.610593,0.262024 -0.128247,0.103333 -0.23627,0.182508 -0.240057,0.175929 -0.0037,-0.0065 -0.03428,-0.07242 -0.06781,-0.146343 l -0.061,-0.134384 0.154894,-0.14803 c 0.206777,-0.19761 0.927733,-0.783905 1.147861,-0.933455 0.250156,-0.169949 0.547275,-0.301376 0.682286,-0.3018 0.06367,-3.68e-4 0.159713,0.03428 0.213522,0.07657 0.08882,0.06993 0.09784,0.100551 0.09784,0.333956 0,0.277687 -0.117218,0.929208 -0.318762,1.77174 -0.06975,0.291637 -0.126312,0.542281 -0.125658,0.556996 6.26e-4,0.01474 0.08136,-0.12716 0.179384,-0.315261 0.09803,-0.18811 0.277134,-0.471546 0.398011,-0.629859 0.279419,-0.365928 0.959051,-1.049604 1.296641,-1.304349 0.32107,-0.242287 0.81788,-0.490186 0.98235,-0.490186 0.2757,0 0.4844,0.241136 0.4844,0.559686 0,0.201719 -0.2044,1.215463 -0.45992,2.28099 -0.2185,0.911148 -0.357,1.595202 -0.357,1.763125 0,0.288826 0.27922,0.224523 0.77368,-0.178178 0.10897,-0.08873 0.20329,-0.155824 0.20961,-0.149061 0.006,0.0064 0.0367,0.07306 0.0675,0.147394 l 0.0559,0.135102 -0.45126,0.368831 c -0.54856,0.448373 -0.73309,0.575635 -1.04912,0.723526 -0.26159,0.122415 -0.50252,0.162192 -0.63656,0.105103 z m 3.04318,-0.05574 c -0.0601,-0.05058 -0.14898,-0.180084 -0.19747,-0.287776 -0.0797,-0.177035 -0.0877,-0.243863 -0.0838,-0.697101 0.005,-0.566375 0.088,-1.099277 0.29542,-1.893778 0.13965,-0.534992 0.34734,-1.096328 0.47539,-1.284898 0.21347,-0.31434 1.28426,-1.200795 1.68735,-1.396866 0.21365,-0.103914 0.29494,-0.122268 0.5939,-0.134052 0.39205,-0.01548 0.585,0.02276 0.94298,0.186571 l 0.24963,0.114252 0.24474,-0.159446 0.24474,-0.159464 0.0797,0.0797 0.0797,0.0797 -0.10084,0.418225 c -0.20802,0.862877 -0.77427,3.731388 -0.77746,3.938524 -0.002,0.149569 0.0145,0.233249 0.0548,0.273606 0.0528,0.05279 0.0741,0.05012 0.23091,-0.0282 0.095,-0.04745 0.27054,-0.17475 0.39003,-0.282874 0.11948,-0.108134 0.22548,-0.196605 0.23555,-0.196605 0.01,0 0.0392,0.08707 0.0648,0.193518 l 0.0464,0.193509 -0.23766,0.216775 c -0.30348,0.276811 -0.80655,0.64027 -1.08819,0.786217 -0.17269,0.08947 -0.26633,0.113644 -0.441,0.113745 -0.20028,0 -0.2294,-0.01004 -0.30061,-0.105111 -0.072,-0.09608 -0.0783,-0.147772 -0.0722,-0.594128 0.006,-0.438809 0.0252,-0.569729 0.18757,-1.27797 0.0995,-0.43399 0.17743,-0.789074 0.17313,-0.789074 -0.005,0 -0.0789,0.129501 -0.16564,0.287786 -0.51874,0.945986 -1.20468,1.812281 -1.73416,2.190113 -0.43912,0.313345 -0.86079,0.397522 -1.07758,0.215097 z m 1.56937,-1.254087 c 0.40198,-0.404553 0.71384,-0.862546 1.04295,-1.531738 0.2723,-0.55366 0.47372,-1.130779 0.57472,-1.6468 0.0811,-0.414209 0.0899,-0.396122 -0.25911,-0.530865 -0.40281,-0.155512 -0.77074,-0.130174 -1.00792,0.06938 -0.13993,0.117734 -0.36487,0.559713 -0.49529,0.97313 -0.17218,0.545791 -0.42272,1.671456 -0.50349,2.262128 -0.045,0.329054 -0.006,0.661066 0.0841,0.718413 0.12706,0.08071 0.22766,0.02479 0.56399,-0.313667 z m 6.88698,1.291422 c -0.31504,-0.17135 -0.2746,-0.646656 0.22595,-2.656058 0.33267,-1.335455 0.38721,-1.698305 0.27404,-1.823347 -0.21782,-0.240684 -0.7752,0.22246 -1.37925,1.146037 -0.25603,0.391469 -0.43957,0.790595 -0.65299,1.419965 -0.15192,0.448014 -0.3233,1.12326 -0.37746,1.487207 l -0.0196,0.13185 -0.32462,0.04671 c -0.17854,0.02571 -0.4304,0.07316 -0.55969,0.10549 -0.22691,0.05676 -0.23765,0.0562 -0.30947,-0.01557 l -0.0744,-0.07435 0.13066,-0.42287 c 0.26595,-0.860748 0.32348,-1.064808 0.43321,-1.536861 0.13158,-0.565997 0.33382,-1.834366 0.33301,-2.088447 -3.8e-4,-0.09716 -0.0157,-0.200586 -0.0342,-0.22983 -0.0549,-0.0868 -0.28284,0.0064 -0.58842,0.239596 l -0.27043,0.206685 -0.0545,-0.130385 c -0.0299,-0.07168 -0.0545,-0.143902 -0.0545,-0.16044 0,-0.03925 0.35589,-0.352154 0.88118,-0.774765 0.46882,-0.377197 0.87756,-0.608612 1.07496,-0.608612 0.1784,0 0.3461,0.167766 0.3461,0.34622 0,0.196992 -0.13083,0.919735 -0.29657,1.63825 -0.0819,0.35535 -0.14879,0.659941 -0.1485,0.676877 3.7e-4,0.01695 0.0686,-0.09452 0.15173,-0.247706 0.0831,-0.153171 0.24493,-0.403815 0.3595,-0.556995 0.27952,-0.373723 0.92369,-1.032283 1.28919,-1.317995 0.34293,-0.268068 0.8564,-0.538651 1.02218,-0.538651 0.14519,0 0.30501,0.08246 0.40416,0.2085 0.15635,0.198771 0.087,0.716322 -0.33017,2.465073 -0.35488,1.487576 -0.4403,2.055591 -0.31629,2.103181 0.0307,0.01179 0.0941,0.01179 0.14091,0 0.0904,-0.02267 0.44799,-0.252644 0.6462,-0.415508 l 0.1188,-0.09761 0.0601,0.142556 0.0601,0.142557 -0.14172,0.12447 c -1.01506,0.891504 -1.68662,1.245675 -2.01911,1.064844 z m 3.13989,0.01889 c -0.11473,-0.048 -0.30548,-0.264575 -0.37069,-0.420898 -0.15468,-0.370857 -0.13652,-1.066825 0.0527,-2.019251 0.16835,-0.847416 0.39298,-1.500291 0.63948,-1.858562 0.32691,-0.475149 1.2104,-1.146691 1.80112,-1.36904 0.27634,-0.104006 0.72738,-0.121144 1.04185,-0.03953 l 0.19142,0.04966 0.0398,-0.244609 c 0.13876,-0.853479 0.20815,-1.714706 0.14745,-1.829916 -0.0665,-0.126368 -0.0899,-0.134117 -0.49059,-0.162514 l -0.36726,-0.02607 0.0257,-0.171359 c 0.0141,-0.09424 0.0449,-0.183623 0.0685,-0.198633 0.0235,-0.01502 0.13468,-0.02782 0.24701,-0.02847 0.37036,-0.0018 1.41299,-0.274481 1.78716,-0.466903 0.0872,-0.04487 0.10479,-0.04229 0.16472,0.02396 0.065,0.07187 0.0595,0.112833 -0.18045,1.326131 -0.3747,1.894772 -0.94266,5.018949 -1.0872,5.980349 -0.0525,0.349058 -0.0373,0.461614 0.0673,0.499087 0.0658,0.02359 0.15485,-0.02819 0.4754,-0.276278 0.15402,-0.119218 0.29769,-0.216755 0.31928,-0.216755 0.0216,0 0.066,0.06809 0.0987,0.151319 l 0.0594,0.151328 -0.13415,0.117882 c -1.10507,0.971066 -1.6261,1.231652 -1.93797,0.969241 -0.13848,-0.116527 -0.20482,-0.337982 -0.17078,-0.570208 0.0136,-0.09335 0.12257,-0.620691 0.24197,-1.171854 0.11941,-0.551154 0.21307,-1.006143 0.20813,-1.011072 -0.005,-0.0046 -0.12336,0.197664 -0.26317,0.450225 -0.33727,0.609257 -0.67153,1.074777 -1.07747,1.500586 -0.69274,0.726678 -1.22899,1.016112 -1.59724,0.862103 z m 1.14369,-0.990875 c 0.56327,-0.289988 1.32333,-1.414584 1.71539,-2.538121 0.18584,-0.532569 0.36833,-1.378051 0.30618,-1.418518 -0.13506,-0.0879 -0.54168,-0.178186 -0.80194,-0.177993 -0.33494,3.69e-4 -0.52721,0.04699 -0.65601,0.159335 -0.33462,0.291987 -0.91514,2.463267 -0.92372,3.454889 -0.004,0.419396 3.8e-4,0.442836 0.0838,0.510576 0.10677,0.08652 0.12599,0.08716 0.27623,0.0099 z m 4.94611,0.974696 c -0.23788,-0.07518 -0.36745,-0.155576 -0.51596,-0.31997 -0.38391,-0.424933 -0.44366,-1.062421 -0.20877,-2.227392 0.30326,-1.504124 0.57816,-1.969598 1.54166,-2.610514 0.6784,-0.451275 1.00754,-0.581642 1.47049,-0.582481 0.44311,-8.1e-4 0.74435,0.167573 0.9125,0.509996 0.091,0.185466 0.10461,0.255307 0.10255,0.52929 -0.005,0.680313 -0.30035,1.164326 -0.96309,1.578663 -0.40052,0.250396 -1.27789,0.584711 -1.656,0.631002 -0.11429,0.014 -0.22929,0.0387 -0.25556,0.05491 -0.0351,0.02175 -0.0489,0.175552 -0.0521,0.581283 -0.004,0.510365 0.002,0.565178 0.0837,0.730594 0.2849,0.578667 1.04336,0.509323 2.1027,-0.192229 0.14301,-0.09471 0.27046,-0.17709 0.28323,-0.18306 0.0422,-0.01972 0.14968,0.298353 0.11318,0.334859 -0.019,0.01898 -0.25796,0.191648 -0.53105,0.383683 -0.55318,0.388999 -1.12572,0.693913 -1.46051,0.777805 -0.26587,0.06662 -0.76168,0.06846 -0.96693,0.0037 z m 1.03756,-2.950293 c 0.52841,-0.205183 0.87058,-0.521734 1.1243,-1.040105 0.1273,-0.260089 0.16205,-0.710839 0.0687,-0.891339 -0.0753,-0.145523 -0.26036,-0.264677 -0.41105,-0.264584 -0.35565,3.68e-4 -0.64678,0.225748 -0.87183,0.675375 -0.17485,0.349343 -0.22329,0.504596 -0.36709,1.176553 l -0.10589,0.494912 0.14831,-0.02368 c 0.0815,-0.01308 0.26812,-0.07021 0.41455,-0.127096 z m 5.42358,2.942194 c -0.16339,-0.02939 -0.47898,-0.103767 -0.70132,-0.165343 -0.62061,-0.171893 -0.89172,-0.220358 -1.22275,-0.21858 -0.33911,0.0018 -0.51912,0.0527 -0.71489,0.201995 -0.0728,0.05547 -0.13853,0.09473 -0.14612,0.08716 -0.007,-0.0074 -0.0458,-0.08864 -0.0849,-0.18013 l -0.071,-0.166338 1.75831,-2.035956 c 0.96706,-1.119778 1.7583,-2.041034 1.7583,-2.047253 0,-0.0065 -0.071,0.01327 -0.15781,0.0433 -0.27447,0.09503 -0.77201,0.100477 -1.34607,0.01474 -0.28592,-0.04275 -0.62387,-0.07776 -0.75099,-0.07786 -0.26307,-3.68e-4 -0.27591,0.01308 -0.40255,0.417544 l -0.0669,0.213513 h -0.15813 c -0.087,0 -0.16489,-0.01253 -0.17317,-0.02783 -0.008,-0.01529 0.0971,-0.403825 0.2342,-0.863347 l 0.24925,-0.835484 0.14421,-0.04358 c 0.30447,-0.09196 0.60258,-0.05998 1.4717,0.157713 0.96916,0.242794 1.28055,0.269837 1.54105,0.133831 0.0868,-0.04533 0.15789,-0.09459 0.158,-0.109488 0,-0.01493 0.0386,-0.07518 0.0857,-0.133886 0.0837,-0.104568 0.0878,-0.105554 0.20006,-0.04754 l 0.11462,0.05924 -0.074,0.294447 -0.074,0.294447 -1.70446,1.956284 c -0.93744,1.075957 -1.70445,1.96231 -1.70445,1.969681 0,0.0074 0.0753,-0.0199 0.1673,-0.06063 0.092,-0.04073 0.294,-0.09825 0.44884,-0.12787 0.28367,-0.05427 0.58841,-0.0398 1.16624,0.05556 0.4066,0.06708 0.96962,0.121577 0.9951,0.09633 0.0144,-0.01419 0.0788,-0.170742 0.14323,-0.347869 l 0.11716,-0.322061 0.13473,0.0046 c 0.0741,0.0028 0.14223,0.01179 0.15139,0.02101 0.009,0.0092 -0.015,0.12728 -0.0536,0.262493 -0.0565,0.197462 -0.19786,0.811639 -0.3204,1.391752 -0.0412,0.195075 -0.48176,0.248801 -1.11185,0.135581 z M 79.86106,33.605842 c 0.01345,-0.101739 0.03262,-0.193103 0.04257,-0.203036 0.01,-0.01 0.148978,-0.0293 0.309004,-0.04303 0.358299,-0.03077 0.485312,-0.08818 0.566551,-0.255877 0.03842,-0.07933 0.209246,-1.056258 0.438302,-2.50648 0.206446,-1.307077 0.432941,-2.725991 0.503325,-3.153145 0.13689,-0.830711 0.156009,-1.120312 0.08071,-1.223221 -0.04478,-0.06118 -0.149587,-0.08292 -0.759415,-0.157493 l -0.15682,-0.01916 0.02276,-0.174253 c 0.01253,-0.09584 0.02967,-0.182056 0.03796,-0.191583 0.0083,-0.0095 0.767375,-0.01788 1.686714,-0.01861 l 1.671512,-9.22e-4 -0.02294,0.129962 c -0.04533,0.256928 -0.03289,0.248018 -0.377188,0.269496 -0.372331,0.02322 -0.48099,0.08302 -0.559225,0.307705 -0.0281,0.08081 -0.15178,0.706675 -0.274785,1.390849 -0.123014,0.684174 -0.232732,1.281554 -0.243835,1.327504 l -0.02018,0.08357 h 1.544333 1.544342 l 0.01797,-0.08357 c 0.0099,-0.04598 0.061,-0.375971 0.113552,-0.733377 0.05261,-0.357405 0.137323,-0.931851 0.188312,-1.27656 0.132016,-0.892518 0.116712,-0.921818 -0.516454,-0.988535 -0.187189,-0.01972 -0.351094,-0.03612 -0.364215,-0.03649 -0.01308,-3.69e-4 -0.0046,-0.08781 0.01916,-0.194431 l 0.04303,-0.193794 1.663873,-9.22e-4 1.663872,-9.21e-4 -0.02138,0.106751 c -0.0117,0.05869 -0.02138,0.144169 -0.02138,0.189889 0,0.07869 -0.01834,0.08421 -0.343481,0.102623 -0.400158,0.02267 -0.449351,0.03815 -0.504228,0.158608 -0.06929,0.152047 -0.223298,0.828914 -0.303983,1.335906 -0.04229,0.265497 -0.210786,1.301512 -0.374497,2.302246 -0.439372,2.685652 -0.50467,3.25528 -0.386706,3.373245 0.07233,0.07233 0.376082,0.135812 0.65001,0.135812 0.120323,0 0.22877,0.01612 0.240979,0.03593 0.01216,0.01972 0.01161,0.115837 -9.22e-4,0.213522 l -0.02359,0.177588 H 85.93211 84.229529 l 0.02174,-0.167094 c 0.01198,-0.09195 0.03621,-0.185677 0.05399,-0.20838 0.01778,-0.02267 0.185954,-0.05003 0.373769,-0.06072 0.319767,-0.01824 0.347675,-0.02644 0.439132,-0.128773 0.121365,-0.135821 0.184093,-0.422003 0.477121,-2.17655 l 0.215005,-1.287368 H 84.27747 c -0.843049,0 -1.540343,0.01253 -1.549548,0.02782 -0.0092,0.0153 -0.04423,0.236723 -0.07786,0.492011 -0.03363,0.255288 -0.08523,0.59784 -0.114666,0.76122 -0.100395,0.556959 -0.240758,1.632795 -0.240758,1.84535 0,0.391846 0.0999,0.47501 0.57182,0.476033 0.145026,3.69e-4 0.284174,0.01354 0.309245,0.02948 0.03114,0.01981 0.0387,0.08726 0.02377,0.212951 l -0.02184,0.183991 H 81.507171 79.83671 l 0.02451,-0.184986 z m 26.05162,-6.582437 c 0.18725,-0.219548 0.56601,-0.669414 0.84167,-0.999693 0.43139,-0.51687 0.52714,-0.61168 0.68735,-0.6806 0.21391,-0.09205 0.30668,-0.0797 0.4766,0.0633 0.20658,0.17382 0.27772,0.461273 0.1671,0.675182 -0.0696,0.134734 -0.14508,0.189289 -1.12557,0.814292 l -0.82632,0.526728 h -0.28066 -0.28065 z m -48.420443,-0.03511 c -0.214584,-0.112943 -0.279058,-0.237561 -0.294082,-0.568411 -0.01138,-0.250599 2.2e-5,-0.321186 0.08015,-0.496212 0.132405,-0.289223 0.336161,-0.432056 0.616036,-0.431872 0.251022,1.85e-4 0.401734,0.08117 0.526541,0.28316 0.07217,0.116777 0.0876,0.190653 0.08566,0.410357 -0.0029,0.321057 -0.106018,0.55531 -0.321445,0.729673 -0.178747,0.144676 -0.493934,0.17802 -0.692867,0.07334 z m -9.44448,-5.191791 c -1.401531,-0.235635 -2.34512,-1.056488 -2.752694,-2.394643 -0.225457,-0.740231 -0.218985,-0.61132 -0.234447,-4.669467 l -0.01418,-3.722579 h 1.171503 1.1715 l 3.71e-4,3.147017 c 3.71e-4,1.850666 0.01615,3.326771 0.03867,3.583386 0.09009,1.026883 0.385084,1.627644 0.92311,1.879947 0.181016,0.08486 0.25497,0.09724 0.578858,0.09669 0.460853,-7.83e-4 0.671389,-0.08274 0.938172,-0.365218 0.325413,-0.344552 0.49656,-0.853249 0.564992,-1.679325 0.02026,-0.244573 0.03694,-1.834662 0.03727,-3.552611 l 5.98e-4,-3.109886 h 1.189761 1.189762 l -0.01236,3.722579 c -0.01352,4.073175 -0.0073,3.950188 -0.238468,4.683334 -0.419052,1.328748 -1.390543,2.151259 -2.813521,2.382056 -0.411667,0.0668 -1.338194,0.06606 -1.738895,-9.21e-4 z m 48.035024,0.01548 c -0.550426,-0.06413 -1.523492,-0.304039 -1.614829,-0.39813 -0.01354,-0.01391 0.01511,-0.535003 0.06358,-1.157905 0.04856,-0.622911 0.08882,-1.153656 0.08956,-1.179437 8.93e-4,-0.03077 0.04985,-0.01631 0.141976,0.04192 0.432267,0.272878 1.068732,0.50479 1.59652,0.581735 0.399439,0.05823 1.156882,0.02902 1.384104,-0.05335 0.406976,-0.147542 0.601821,-0.443942 0.601821,-0.915488 0,-0.242481 -0.01714,-0.32782 -0.09998,-0.497087 -0.176049,-0.359829 -0.476375,-0.554536 -1.450813,-0.940596 -0.961336,-0.380873 -1.294684,-0.578123 -1.696168,-1.00372 -0.284597,-0.301689 -0.505453,-0.713198 -0.631655,-1.176885 -0.06975,-0.256402 -0.08081,-0.393634 -0.08081,-1.002595 0,-0.612684 0.01078,-0.744617 0.08182,-1.002587 0.295682,-1.073247 1.077302,-1.810281 2.240209,-2.112431 0.970642,-0.252192 2.231815,-0.213807 3.177939,0.09673 l 0.343485,0.112741 3.7e-4,0.134559 c 3.7e-4,0.171506 -0.1166,2.062252 -0.12825,2.07505 -0.005,0.0055 -0.138881,-0.05058 -0.297967,-0.124055 -0.850429,-0.392915 -2.006961,-0.461208 -2.617332,-0.154544 -0.333292,0.167462 -0.45838,0.349187 -0.477876,0.694255 -0.01843,0.325571 0.03842,0.494378 0.230447,0.685224 0.201185,0.199895 0.482539,0.343161 1.137063,0.578971 0.765689,0.275872 1.089666,0.423312 1.43643,0.653704 0.907015,0.602632 1.311875,1.612497 1.199445,2.991865 -0.14637,1.795807 -1.133981,2.826431 -2.944917,3.073169 -0.333016,0.04533 -1.290574,0.04478 -1.684061,-9.22e-4 z m 28.468889,-0.01686 c -0.42944,-0.05989 -1.07756,-0.21191 -1.33528,-0.313124 l -0.16559,-0.06505 0.01,-0.181337 c 0.006,-0.09973 0.0421,-0.599085 0.0819,-1.109661 0.0397,-0.510576 0.0723,-0.962985 0.0724,-1.00536 0,-0.06966 0.0452,-0.05464 0.47362,0.158331 0.2895,0.14392 0.61772,0.273909 0.84478,0.334546 0.33062,0.08827 0.44053,0.09944 1.00259,0.101601 0.58344,0.0018 0.64566,-0.0037 0.82132,-0.08357 0.37919,-0.171617 0.54502,-0.444282 0.54612,-0.898 9.2e-4,-0.453183 -0.18281,-0.763957 -0.60328,-1.019374 -0.11742,-0.07131 -0.48778,-0.240362 -0.82302,-0.37563 -0.99214,-0.400323 -1.29606,-0.573378 -1.69107,-0.962939 -0.28175,-0.277872 -0.36443,-0.387397 -0.49059,-0.649825 -0.25241,-0.525098 -0.31955,-0.871124 -0.31702,-1.633855 0.003,-0.762465 0.059,-1.035204 0.3269,-1.579558 0.56183,-1.141559 1.87009,-1.749986 3.60456,-1.676377 0.63956,0.02718 1.11656,0.106116 1.57815,0.261259 l 0.35276,0.118573 -0.009,0.129114 c -0.0324,0.469077 -0.16635,2.061773 -0.17409,2.069614 -0.006,0.0055 -0.13962,-0.05058 -0.29871,-0.124055 -0.50923,-0.235276 -0.9235,-0.323249 -1.54203,-0.32746 -0.59773,-0.0037 -0.86041,0.04966 -1.13264,0.231793 -0.20709,0.13853 -0.35268,0.433207 -0.35268,0.713852 0,0.477682 0.29886,0.778524 1.06551,1.072538 1.06486,0.408394 1.29651,0.508162 1.56261,0.67297 0.33921,0.210103 0.73228,0.597969 0.91446,0.902349 0.32524,0.543414 0.47813,1.409 0.39436,2.232709 -0.0515,0.506513 -0.11796,0.800351 -0.26271,1.161848 -0.37139,0.927502 -1.13439,1.533755 -2.26081,1.796341 -0.43041,0.100329 -1.62931,0.126432 -2.19321,0.04773 z M 54.556095,16.337986 v -5.329005 l 1.455588,0.0097 1.455589,0.0097 1.403525,3.564764 c 0.771938,1.960614 1.41196,3.581468 1.42227,3.601896 0.01032,0.02045 0.01216,-1.587897 0.0046,-3.574052 l -0.01456,-3.611174 h 1.035646 1.035645 v 5.32858 5.328571 l -1.420342,-5.62e-4 -1.420333,-5.62e-4 -1.465377,-3.581036 c -0.805959,-1.96958 -1.470223,-3.576208 -1.476142,-3.570283 -0.0059,0.0055 0.0057,1.153942 0.02587,2.551167 0.02015,1.397225 0.03691,3.004101 0.03724,3.570845 l 6.01e-4,1.030431 H 55.596162 54.55644 Z m 9.951626,4.33e-4 v -5.328581 h 1.151122 1.151123 v 5.328581 5.328571 h -1.151123 -1.151122 z m 6.558205,5.263585 c -0.07519,-0.252828 -2.807773,-10.524462 -2.807773,-10.554306 0,-0.02497 0.410504,-0.03787 1.203421,-0.03787 h 1.20342 l 0.110806,0.473445 c 0.0609,0.260392 0.482935,2.111012 0.937758,4.112472 0.454814,2.001468 0.836765,3.650526 0.848761,3.664577 0.01695,0.0199 0.791267,-3.331921 1.852288,-8.018415 l 0.05252,-0.232079 h 1.170113 1.170122 l -0.02184,0.08329 c -0.01198,0.04579 -0.661444,2.443688 -1.443239,5.328571 l -1.421438,5.245241 -1.417836,10e-6 c -1.318198,9e-6 -1.419191,-0.0046 -1.437158,-0.06496 z m 6.99531,-5.263585 v -5.328581 h 3.026334 3.026335 v 1.002587 1.002595 h -1.875212 -1.875212 v 1.113982 1.113991 h 1.764415 1.764406 l -0.0099,1.011874 -0.0099,1.011874 -1.754538,0.0097 -1.754529,0.0097 v 1.187887 1.187895 h 1.93091 1.930918 v 1.002586 1.002587 H 81.143231 78.06119 Z m 7.946455,-0.0018 v -5.33042 l 2.33009,0.01262 c 2.287345,0.01235 2.335082,0.0141 2.602219,0.09558 0.913922,0.278655 1.498052,0.86648 1.741077,1.752078 0.101435,0.369632 0.08891,1.466955 -0.02138,1.873065 -0.196651,0.724088 -0.604604,1.251857 -1.185076,1.533101 l -0.307227,0.148859 0.11135,0.04607 c 0.162513,0.06735 0.400949,0.343658 0.52353,0.606778 0.05879,0.126211 0.21507,0.605442 0.347252,1.064964 0.235644,0.819148 0.968725,3.334123 1.009469,3.463163 0.01953,0.06182 -0.04718,0.06496 -1.17636,0.05574 l -1.197044,-0.0098 -0.327801,-1.281084 C 89.96987,18.460444 89.783659,17.978929 89.428004,17.704531 89.223558,17.546799 89.06895,17.508552 88.634839,17.508304 l -0.362047,-2.12e-4 v 2.079446 2.079445 h -1.132553 -1.132548 z m 3.703062,-0.994644 c 0.520002,-0.14639 0.754661,-0.479729 0.762382,-1.082987 0.0046,-0.375483 -0.07786,-0.633627 -0.264327,-0.825809 -0.270353,-0.278572 -0.599315,-0.373852 -1.406872,-0.407464 l -0.52914,-0.02202 v 1.217628 1.217628 l 0.621979,-0.02119 c 0.369503,-0.01262 0.700722,-0.0433 0.815978,-0.07583 z m 12.858217,0.996459 v -5.32858 h 1.15112 1.15113 v 5.32858 5.328571 h -1.15113 -1.15112 z m 5.86701,1.058874 v -4.269697 l -1.03044,-0.0099 -1.03044,-0.0099 -0.01,-1.049006 -0.01,-1.049006 h 3.23115 3.23114 v 1.058294 1.058284 h -1.03972 -1.03972 v 4.270287 4.270287 h -1.15113 -1.15111 z m 4.16869,4.223287 c 0.01,-0.02552 0.74121,-2.423592 1.62547,-5.329023 l 1.60774,-5.282603 1.39078,0.0098 1.39079,0.0097 1.63905,5.310015 1.63905,5.310005 -1.2419,0.0098 c -0.76091,0.0065 -1.25005,-0.0037 -1.26296,-0.02571 -0.0116,-0.01953 -0.15474,-0.529253 -0.31812,-1.13276 l -0.29707,-1.097277 -1.59672,-9e-6 -1.59671,-9e-6 -0.14166,0.491724 c -0.078,0.270445 -0.22655,0.779971 -0.3303,1.132272 l -0.18863,0.640537 h -1.16828 c -0.91933,0 -1.1645,-0.0099 -1.15053,-0.04644 z m 5.62039,-4.288862 c -0.0105,-0.03575 -0.22922,-0.933888 -0.48614,-1.995895 -0.2569,-1.061997 -0.47976,-1.961711 -0.49521,-1.999349 -0.0187,-0.04561 -0.20594,0.604658 -0.56125,1.949484 -0.29322,1.109854 -0.54097,2.038803 -0.55053,2.064326 -0.0136,0.03649 0.21105,0.04644 1.04738,0.04644 0.99656,0 1.06355,-0.0046 1.04575,-0.06496 z"
       style="fill:#ffffff;stroke-width:0.999997" />
  </g>
</svg>
